<mxfile host="app.diagrams.net" modified="2021-04-27T13:30:34.931Z" agent="5.0 (Windows NT 10.0; Win64; x64) AppleWebKit/537.36 (KHTML, like Gecko) Chrome/90.0.4430.85 Safari/537.36" etag="Nivm6PXn2tCeA3DA6_6h" version="14.6.6" type="github">
  <diagram id="veLiwq5YTL0GMEPP4R5Z" name="Page-1">
    <mxGraphModel dx="1038" dy="580" grid="1" gridSize="10" guides="1" tooltips="1" connect="1" arrows="1" fold="1" page="1" pageScale="1" pageWidth="850" pageHeight="1100" math="0" shadow="0">
      <root>
        <mxCell id="0" />
        <mxCell id="1" parent="0" />
        <mxCell id="FnrxCu2kF5tLzmkT3T5m-7" style="edgeStyle=orthogonalEdgeStyle;rounded=0;orthogonalLoop=1;jettySize=auto;html=1;exitX=0.5;exitY=0;exitDx=0;exitDy=0;entryX=0;entryY=0.5;entryDx=0;entryDy=0;fillColor=#ffe6cc;strokeColor=#d79b00;strokeWidth=2;" edge="1" parent="1" source="FnrxCu2kF5tLzmkT3T5m-1" target="FnrxCu2kF5tLzmkT3T5m-3">
          <mxGeometry relative="1" as="geometry">
            <Array as="points">
              <mxPoint x="200" y="270" />
              <mxPoint x="200" y="110" />
            </Array>
          </mxGeometry>
        </mxCell>
        <mxCell id="FnrxCu2kF5tLzmkT3T5m-9" style="edgeStyle=orthogonalEdgeStyle;rounded=0;orthogonalLoop=1;jettySize=auto;html=1;exitX=0.75;exitY=0;exitDx=0;exitDy=0;entryX=-0.01;entryY=0.245;entryDx=0;entryDy=0;entryPerimeter=0;strokeWidth=2;fillColor=#ffe6cc;strokeColor=#d79b00;" edge="1" parent="1" source="FnrxCu2kF5tLzmkT3T5m-1" target="FnrxCu2kF5tLzmkT3T5m-4">
          <mxGeometry relative="1" as="geometry" />
        </mxCell>
        <mxCell id="FnrxCu2kF5tLzmkT3T5m-13" style="edgeStyle=orthogonalEdgeStyle;rounded=0;orthogonalLoop=1;jettySize=auto;html=1;exitX=0.5;exitY=1;exitDx=0;exitDy=0;entryX=0;entryY=0.5;entryDx=0;entryDy=0;strokeWidth=2;fillColor=#ffe6cc;strokeColor=#d79b00;" edge="1" parent="1" source="FnrxCu2kF5tLzmkT3T5m-1" target="FnrxCu2kF5tLzmkT3T5m-5">
          <mxGeometry relative="1" as="geometry" />
        </mxCell>
        <mxCell id="FnrxCu2kF5tLzmkT3T5m-14" style="edgeStyle=orthogonalEdgeStyle;rounded=0;orthogonalLoop=1;jettySize=auto;html=1;exitX=0;exitY=0.5;exitDx=0;exitDy=0;strokeWidth=2;entryX=0.5;entryY=1;entryDx=0;entryDy=0;fillColor=#ffe6cc;strokeColor=#d79b00;" edge="1" parent="1" source="FnrxCu2kF5tLzmkT3T5m-1" target="FnrxCu2kF5tLzmkT3T5m-6">
          <mxGeometry relative="1" as="geometry">
            <mxPoint x="570" y="570" as="targetPoint" />
            <Array as="points">
              <mxPoint x="160" y="295" />
              <mxPoint x="160" y="460" />
              <mxPoint x="570" y="460" />
            </Array>
          </mxGeometry>
        </mxCell>
        <mxCell id="FnrxCu2kF5tLzmkT3T5m-1" value="&lt;u style=&quot;font-weight: bold&quot;&gt;Site A&lt;/u&gt;&lt;br&gt;&lt;br&gt;Opening cost f&lt;sub&gt;A&lt;/sub&gt;" style="rounded=0;whiteSpace=wrap;html=1;fillColor=#ffe6cc;strokeColor=#d79b00;" vertex="1" parent="1">
          <mxGeometry x="180" y="260" width="100" height="60" as="geometry" />
        </mxCell>
        <mxCell id="FnrxCu2kF5tLzmkT3T5m-8" style="edgeStyle=orthogonalEdgeStyle;rounded=0;orthogonalLoop=1;jettySize=auto;html=1;exitX=0.25;exitY=0;exitDx=0;exitDy=0;fillColor=#e1d5e7;strokeColor=#9673a6;strokeWidth=2;" edge="1" parent="1" source="FnrxCu2kF5tLzmkT3T5m-2" target="FnrxCu2kF5tLzmkT3T5m-3">
          <mxGeometry relative="1" as="geometry" />
        </mxCell>
        <mxCell id="FnrxCu2kF5tLzmkT3T5m-10" style="edgeStyle=orthogonalEdgeStyle;rounded=0;orthogonalLoop=1;jettySize=auto;html=1;exitX=0;exitY=0.5;exitDx=0;exitDy=0;entryX=0.5;entryY=0;entryDx=0;entryDy=0;strokeWidth=2;fillColor=#e1d5e7;strokeColor=#9673a6;" edge="1" parent="1" source="FnrxCu2kF5tLzmkT3T5m-2" target="FnrxCu2kF5tLzmkT3T5m-4">
          <mxGeometry relative="1" as="geometry" />
        </mxCell>
        <mxCell id="FnrxCu2kF5tLzmkT3T5m-11" style="edgeStyle=orthogonalEdgeStyle;rounded=0;orthogonalLoop=1;jettySize=auto;html=1;exitX=0.5;exitY=1;exitDx=0;exitDy=0;entryX=0.5;entryY=0;entryDx=0;entryDy=0;strokeWidth=2;fillColor=#e1d5e7;strokeColor=#9673a6;" edge="1" parent="1" source="FnrxCu2kF5tLzmkT3T5m-2" target="FnrxCu2kF5tLzmkT3T5m-5">
          <mxGeometry relative="1" as="geometry" />
        </mxCell>
        <mxCell id="FnrxCu2kF5tLzmkT3T5m-12" style="edgeStyle=orthogonalEdgeStyle;rounded=0;orthogonalLoop=1;jettySize=auto;html=1;exitX=1;exitY=0.5;exitDx=0;exitDy=0;entryX=0.5;entryY=0;entryDx=0;entryDy=0;strokeWidth=2;fillColor=#e1d5e7;strokeColor=#9673a6;" edge="1" parent="1" source="FnrxCu2kF5tLzmkT3T5m-2" target="FnrxCu2kF5tLzmkT3T5m-6">
          <mxGeometry relative="1" as="geometry" />
        </mxCell>
        <mxCell id="FnrxCu2kF5tLzmkT3T5m-2" value="&lt;u style=&quot;font-weight: bold&quot;&gt;Site B&lt;/u&gt;&lt;br&gt;&lt;br&gt;Opening cost f&lt;sub&gt;B&lt;/sub&gt;" style="rounded=0;whiteSpace=wrap;html=1;fillColor=#e1d5e7;strokeColor=#9673a6;" vertex="1" parent="1">
          <mxGeometry x="490" y="120" width="100" height="60" as="geometry" />
        </mxCell>
        <mxCell id="FnrxCu2kF5tLzmkT3T5m-3" value="Client 1" style="ellipse;whiteSpace=wrap;html=1;aspect=fixed;" vertex="1" parent="1">
          <mxGeometry x="220" y="90" width="40" height="40" as="geometry" />
        </mxCell>
        <mxCell id="FnrxCu2kF5tLzmkT3T5m-4" value="Client 2" style="ellipse;whiteSpace=wrap;html=1;aspect=fixed;" vertex="1" parent="1">
          <mxGeometry x="460" y="230" width="40" height="40" as="geometry" />
        </mxCell>
        <mxCell id="FnrxCu2kF5tLzmkT3T5m-5" value="Client 3" style="ellipse;whiteSpace=wrap;html=1;aspect=fixed;" vertex="1" parent="1">
          <mxGeometry x="350" y="400" width="40" height="40" as="geometry" />
        </mxCell>
        <mxCell id="FnrxCu2kF5tLzmkT3T5m-6" value="Client 4" style="ellipse;whiteSpace=wrap;html=1;aspect=fixed;" vertex="1" parent="1">
          <mxGeometry x="550" y="360" width="40" height="40" as="geometry" />
        </mxCell>
        <mxCell id="FnrxCu2kF5tLzmkT3T5m-15" value="c&lt;sub&gt;1,B&lt;/sub&gt;" style="text;html=1;strokeColor=#9673a6;fillColor=#e1d5e7;align=center;verticalAlign=middle;whiteSpace=wrap;rounded=0;" vertex="1" parent="1">
          <mxGeometry x="360" y="70" width="40" height="20" as="geometry" />
        </mxCell>
        <mxCell id="FnrxCu2kF5tLzmkT3T5m-16" value="c&lt;sub&gt;4,B&lt;/sub&gt;" style="text;html=1;strokeColor=#9673a6;fillColor=#e1d5e7;align=center;verticalAlign=middle;whiteSpace=wrap;rounded=0;" vertex="1" parent="1">
          <mxGeometry x="620" y="230" width="40" height="20" as="geometry" />
        </mxCell>
        <mxCell id="FnrxCu2kF5tLzmkT3T5m-17" value="c&lt;sub&gt;3,B&lt;/sub&gt;" style="text;html=1;strokeColor=#9673a6;fillColor=#e1d5e7;align=center;verticalAlign=middle;whiteSpace=wrap;rounded=0;" vertex="1" parent="1">
          <mxGeometry x="460" y="300" width="40" height="20" as="geometry" />
        </mxCell>
        <mxCell id="FnrxCu2kF5tLzmkT3T5m-18" value="c&lt;sub&gt;2,B&lt;/sub&gt;" style="text;html=1;strokeColor=#9673a6;fillColor=#e1d5e7;align=center;verticalAlign=middle;whiteSpace=wrap;rounded=0;" vertex="1" parent="1">
          <mxGeometry x="420" y="160" width="40" height="20" as="geometry" />
        </mxCell>
        <mxCell id="FnrxCu2kF5tLzmkT3T5m-20" value="c&lt;sub&gt;1,A&lt;/sub&gt;" style="text;html=1;strokeColor=#d79b00;fillColor=#ffe6cc;align=center;verticalAlign=middle;whiteSpace=wrap;rounded=0;" vertex="1" parent="1">
          <mxGeometry x="150" y="180" width="40" height="20" as="geometry" />
        </mxCell>
        <mxCell id="FnrxCu2kF5tLzmkT3T5m-21" value="c&lt;sub&gt;2,A&lt;/sub&gt;" style="text;html=1;strokeColor=#d79b00;fillColor=#ffe6cc;align=center;verticalAlign=middle;whiteSpace=wrap;rounded=0;" vertex="1" parent="1">
          <mxGeometry x="320" y="210" width="40" height="20" as="geometry" />
        </mxCell>
        <mxCell id="FnrxCu2kF5tLzmkT3T5m-22" value="c&lt;sub&gt;4,A&lt;/sub&gt;" style="text;html=1;strokeColor=#d79b00;fillColor=#ffe6cc;align=center;verticalAlign=middle;whiteSpace=wrap;rounded=0;" vertex="1" parent="1">
          <mxGeometry x="440" y="470" width="40" height="20" as="geometry" />
        </mxCell>
        <mxCell id="FnrxCu2kF5tLzmkT3T5m-23" value="c&lt;sub&gt;3,A&lt;/sub&gt;" style="text;html=1;strokeColor=#d79b00;fillColor=#ffe6cc;align=center;verticalAlign=middle;whiteSpace=wrap;rounded=0;" vertex="1" parent="1">
          <mxGeometry x="260" y="390" width="40" height="20" as="geometry" />
        </mxCell>
      </root>
    </mxGraphModel>
  </diagram>
</mxfile>
